{
	"patcher" : 	{
		"fileversion" : 1,
		"appversion" : 		{
			"major" : 8,
			"minor" : 1,
			"revision" : 0,
			"architecture" : "x64",
			"modernui" : 1
		}
,
		"classnamespace" : "box",
		"rect" : [ 971.0, 124.0, 765.0, 809.0 ],
		"bglocked" : 0,
		"openinpresentation" : 1,
		"default_fontsize" : 12.0,
		"default_fontface" : 0,
		"default_fontname" : "Arial",
		"gridonopen" : 1,
		"gridsize" : [ 15.0, 15.0 ],
		"gridsnaponopen" : 1,
		"objectsnaponopen" : 1,
		"statusbarvisible" : 2,
		"toolbarvisible" : 0,
		"lefttoolbarpinned" : 0,
		"toptoolbarpinned" : 0,
		"righttoolbarpinned" : 0,
		"bottomtoolbarpinned" : 0,
		"toolbars_unpinned_last_save" : 0,
		"tallnewobj" : 0,
		"boxanimatetime" : 200,
		"enablehscroll" : 0,
		"enablevscroll" : 0,
		"devicewidth" : 0.0,
		"description" : "",
		"digest" : "",
		"tags" : "",
		"style" : "",
		"subpatcher_template" : "",
		"boxes" : [ 			{
				"box" : 				{
					"fontface" : 1,
					"id" : "obj-17",
					"maxclass" : "comment",
					"numinlets" : 1,
					"numoutlets" : 0,
					"patching_rect" : [ 805.5, 351.5, 41.0, 20.0 ],
					"presentation" : 1,
					"presentation_rect" : [ 531.5, 607.5, 41.0, 20.0 ],
					"text" : "EAR4",
					"textcolor" : [ 0.996078431372549, 0.0, 0.0, 1.0 ]
				}

			}
, 			{
				"box" : 				{
					"fontface" : 1,
					"id" : "obj-18",
					"maxclass" : "comment",
					"numinlets" : 1,
					"numoutlets" : 0,
					"patching_rect" : [ 705.5, 351.5, 41.0, 20.0 ],
					"presentation" : 1,
					"presentation_rect" : [ 171.5, 220.5, 41.0, 20.0 ],
					"text" : "EAR3",
					"textcolor" : [ 0.996078431372549, 0.0, 0.0, 1.0 ]
				}

			}
, 			{
				"box" : 				{
					"fontface" : 1,
					"id" : "obj-19",
					"maxclass" : "comment",
					"numinlets" : 1,
					"numoutlets" : 0,
					"patching_rect" : [ 605.5, 351.5, 41.0, 20.0 ],
					"presentation" : 1,
					"presentation_rect" : [ 503.0, 451.5, 41.0, 20.0 ],
					"text" : "EAR2",
					"textcolor" : [ 0.996078431372549, 0.0, 0.0, 1.0 ]
				}

			}
, 			{
				"box" : 				{
					"fontface" : 1,
					"id" : "obj-20",
					"maxclass" : "comment",
					"numinlets" : 1,
					"numoutlets" : 0,
					"patching_rect" : [ 505.5, 351.5, 41.0, 20.0 ],
					"presentation" : 1,
					"presentation_rect" : [ 186.5, 586.5, 41.0, 20.0 ],
					"text" : "EAR1",
					"textcolor" : [ 0.996078431372549, 0.0, 0.0, 1.0 ]
				}

			}
, 			{
				"box" : 				{
					"fontface" : 1,
					"id" : "obj-16",
					"maxclass" : "comment",
					"numinlets" : 1,
					"numoutlets" : 0,
					"patching_rect" : [ 759.5, 228.5, 41.0, 20.0 ],
					"presentation" : 1,
					"presentation_rect" : [ 313.5, 130.5, 41.0, 20.0 ],
					"text" : "EAR4",
					"textcolor" : [ 0.996078431372549, 0.0, 0.0, 1.0 ]
				}

			}
, 			{
				"box" : 				{
					"fontface" : 1,
					"id" : "obj-15",
					"maxclass" : "comment",
					"numinlets" : 1,
					"numoutlets" : 0,
					"patching_rect" : [ 659.5, 228.5, 41.0, 20.0 ],
					"presentation" : 1,
					"presentation_rect" : [ 321.5, 323.5, 41.0, 20.0 ],
					"text" : "EAR3",
					"textcolor" : [ 0.996078431372549, 0.0, 0.0, 1.0 ]
				}

			}
, 			{
				"box" : 				{
					"fontface" : 1,
					"id" : "obj-14",
					"maxclass" : "comment",
					"numinlets" : 1,
					"numoutlets" : 0,
					"patching_rect" : [ 559.5, 228.5, 41.0, 20.0 ],
					"presentation" : 1,
					"presentation_rect" : [ 175.5, 387.5, 41.0, 20.0 ],
					"text" : "EAR2",
					"textcolor" : [ 0.996078431372549, 0.0, 0.0, 1.0 ]
				}

			}
, 			{
				"box" : 				{
					"fontface" : 1,
					"id" : "obj-13",
					"maxclass" : "comment",
					"numinlets" : 1,
					"numoutlets" : 0,
					"patching_rect" : [ 459.5, 228.5, 41.0, 20.0 ],
					"presentation" : 1,
					"presentation_rect" : [ 520.5, 230.5, 41.0, 20.0 ],
					"text" : "EAR1",
					"textcolor" : [ 0.996078431372549, 0.0, 0.0, 1.0 ]
				}

			}
, 			{
				"box" : 				{
					"fontface" : 1,
					"id" : "obj-12",
					"maxclass" : "comment",
					"numinlets" : 1,
					"numoutlets" : 0,
					"patching_rect" : [ 364.5, 228.5, 31.0, 20.0 ],
					"presentation" : 1,
					"presentation_rect" : [ 683.5, 729.5, 31.0, 20.0 ],
					"text" : "SP4",
					"textcolor" : [ 0.996078431372549, 0.0, 0.0, 1.0 ]
				}

			}
, 			{
				"box" : 				{
					"fontface" : 1,
					"id" : "obj-11",
					"maxclass" : "comment",
					"numinlets" : 1,
					"numoutlets" : 0,
					"patching_rect" : [ 264.5, 228.5, 31.0, 20.0 ],
					"presentation" : 1,
					"presentation_rect" : [ 53.5, 729.5, 31.0, 20.0 ],
					"text" : "SP3",
					"textcolor" : [ 0.996078431372549, 0.0, 0.0, 1.0 ]
				}

			}
, 			{
				"box" : 				{
					"fontface" : 1,
					"id" : "obj-10",
					"maxclass" : "comment",
					"numinlets" : 1,
					"numoutlets" : 0,
					"patching_rect" : [ 164.5, 228.5, 31.0, 20.0 ],
					"presentation" : 1,
					"presentation_rect" : [ 683.5, 55.5, 31.0, 20.0 ],
					"text" : "SP2",
					"textcolor" : [ 0.996078431372549, 0.0, 0.0, 1.0 ]
				}

			}
, 			{
				"box" : 				{
					"fontface" : 1,
					"id" : "obj-9",
					"maxclass" : "comment",
					"numinlets" : 1,
					"numoutlets" : 0,
					"patching_rect" : [ 64.5, 228.5, 31.0, 20.0 ],
					"presentation" : 1,
					"presentation_rect" : [ 53.5, 55.5, 31.0, 20.0 ],
					"text" : "SP1",
					"textcolor" : [ 0.996078431372549, 0.0, 0.0, 1.0 ]
				}

			}
, 			{
				"box" : 				{
					"angle" : 270.0,
					"bgcolor" : [ 0.0, 0.0, 0.0 ],
					"id" : "obj-2",
					"maxclass" : "panel",
					"mode" : 0,
					"numinlets" : 1,
					"numoutlets" : 0,
					"patching_rect" : [ 777.0, 312.0, 98.0, 99.0 ],
					"presentation" : 1,
					"presentation_rect" : [ 285.0, 91.0, 98.0, 99.0 ],
					"proportion" : 0.5,
					"rounded" : 0,
					"shape" : 1
				}

			}
, 			{
				"box" : 				{
					"angle" : 270.0,
					"bgcolor" : [ 0.0, 0.0, 0.0 ],
					"id" : "obj-3",
					"maxclass" : "panel",
					"mode" : 0,
					"numinlets" : 1,
					"numoutlets" : 0,
					"patching_rect" : [ 677.0, 312.0, 98.0, 99.0 ],
					"presentation" : 1,
					"presentation_rect" : [ 143.0, 181.0, 98.0, 99.0 ],
					"proportion" : 0.5,
					"rounded" : 0,
					"shape" : 1
				}

			}
, 			{
				"box" : 				{
					"angle" : 270.0,
					"bgcolor" : [ 0.0, 0.0, 0.0 ],
					"id" : "obj-4",
					"maxclass" : "panel",
					"mode" : 0,
					"numinlets" : 1,
					"numoutlets" : 0,
					"patching_rect" : [ 577.0, 312.0, 98.0, 99.0 ],
					"presentation" : 1,
					"presentation_rect" : [ 474.5, 412.0, 98.0, 99.0 ],
					"proportion" : 0.5,
					"rounded" : 0,
					"shape" : 1
				}

			}
, 			{
				"box" : 				{
					"angle" : 270.0,
					"bgcolor" : [ 0.0, 0.0, 0.0 ],
					"id" : "obj-5",
					"maxclass" : "panel",
					"mode" : 0,
					"numinlets" : 1,
					"numoutlets" : 0,
					"patching_rect" : [ 477.0, 312.0, 98.0, 99.0 ],
					"presentation" : 1,
					"presentation_rect" : [ 158.0, 547.0, 98.0, 99.0 ],
					"proportion" : 0.5,
					"rounded" : 0,
					"shape" : 1
				}

			}
, 			{
				"box" : 				{
					"comment" : "",
					"id" : "obj-1",
					"index" : 1,
					"maxclass" : "inlet",
					"numinlets" : 0,
					"numoutlets" : 1,
					"outlettype" : [ "" ],
					"patching_rect" : [ 31.0, 30.0, 30.0, 30.0 ]
				}

			}
, 			{
				"box" : 				{
					"id" : "obj-42",
					"maxclass" : "message",
					"numinlets" : 2,
					"numoutlets" : 1,
					"outlettype" : [ "" ],
					"patching_rect" : [ 731.0, 150.0, 98.0, 22.0 ],
					"text" : "bgcolor $1 $1 $1"
				}

			}
, 			{
				"box" : 				{
					"angle" : 270.0,
					"bgcolor" : [ 0.0, 0.0, 0.0 ],
					"id" : "obj-43",
					"maxclass" : "panel",
					"mode" : 0,
					"numinlets" : 1,
					"numoutlets" : 0,
					"patching_rect" : [ 731.0, 189.0, 98.0, 99.0 ],
					"presentation" : 1,
					"presentation_rect" : [ 503.0, 568.0, 98.0, 99.0 ],
					"proportion" : 0.5,
					"rounded" : 0,
					"shape" : 1
				}

			}
, 			{
				"box" : 				{
					"id" : "obj-39",
					"maxclass" : "message",
					"numinlets" : 2,
					"numoutlets" : 1,
					"outlettype" : [ "" ],
					"patching_rect" : [ 631.0, 150.0, 98.0, 22.0 ],
					"text" : "bgcolor $1 $1 $1"
				}

			}
, 			{
				"box" : 				{
					"angle" : 270.0,
					"bgcolor" : [ 0.0, 0.0, 0.0 ],
					"id" : "obj-41",
					"maxclass" : "panel",
					"mode" : 0,
					"numinlets" : 1,
					"numoutlets" : 0,
					"patching_rect" : [ 631.0, 189.0, 98.0, 99.0 ],
					"presentation" : 1,
					"presentation_rect" : [ 293.0, 284.0, 98.0, 99.0 ],
					"proportion" : 0.5,
					"rounded" : 0,
					"shape" : 1
				}

			}
, 			{
				"box" : 				{
					"id" : "obj-37",
					"maxclass" : "message",
					"numinlets" : 2,
					"numoutlets" : 1,
					"outlettype" : [ "" ],
					"patching_rect" : [ 531.0, 150.0, 98.0, 22.0 ],
					"text" : "bgcolor $1 $1 $1"
				}

			}
, 			{
				"box" : 				{
					"angle" : 270.0,
					"bgcolor" : [ 0.0, 0.0, 0.0 ],
					"id" : "obj-38",
					"maxclass" : "panel",
					"mode" : 0,
					"numinlets" : 1,
					"numoutlets" : 0,
					"patching_rect" : [ 531.0, 189.0, 98.0, 99.0 ],
					"presentation" : 1,
					"presentation_rect" : [ 147.0, 348.0, 98.0, 99.0 ],
					"proportion" : 0.5,
					"rounded" : 0,
					"shape" : 1
				}

			}
, 			{
				"box" : 				{
					"id" : "obj-35",
					"maxclass" : "message",
					"numinlets" : 2,
					"numoutlets" : 1,
					"outlettype" : [ "" ],
					"patching_rect" : [ 431.0, 150.0, 98.0, 22.0 ],
					"text" : "bgcolor $1 $1 $1"
				}

			}
, 			{
				"box" : 				{
					"angle" : 270.0,
					"bgcolor" : [ 0.0, 0.0, 0.0 ],
					"id" : "obj-36",
					"maxclass" : "panel",
					"mode" : 0,
					"numinlets" : 1,
					"numoutlets" : 0,
					"patching_rect" : [ 431.0, 189.0, 98.0, 99.0 ],
					"presentation" : 1,
					"presentation_rect" : [ 492.0, 191.0, 98.0, 99.0 ],
					"proportion" : 0.5,
					"rounded" : 0,
					"shape" : 1
				}

			}
, 			{
				"box" : 				{
					"id" : "obj-33",
					"maxclass" : "message",
					"numinlets" : 2,
					"numoutlets" : 1,
					"outlettype" : [ "" ],
					"patching_rect" : [ 331.0, 150.0, 98.0, 22.0 ],
					"text" : "bgcolor $1 $1 $1"
				}

			}
, 			{
				"box" : 				{
					"angle" : 270.0,
					"bgcolor" : [ 0.178218873820246, 0.178218873820246, 0.178218873820246 ],
					"id" : "obj-34",
					"maxclass" : "panel",
					"mode" : 0,
					"numinlets" : 1,
					"numoutlets" : 0,
					"patching_rect" : [ 331.0, 189.0, 98.0, 99.0 ],
					"presentation" : 1,
					"presentation_rect" : [ 650.0, 690.0, 98.0, 99.0 ],
					"proportion" : 0.5,
					"rounded" : 0,
					"shape" : 1
				}

			}
, 			{
				"box" : 				{
					"id" : "obj-31",
					"maxclass" : "message",
					"numinlets" : 2,
					"numoutlets" : 1,
					"outlettype" : [ "" ],
					"patching_rect" : [ 231.0, 150.0, 98.0, 22.0 ],
					"text" : "bgcolor $1 $1 $1"
				}

			}
, 			{
				"box" : 				{
					"angle" : 270.0,
					"bgcolor" : [ 0.249060241633472, 0.249060241633472, 0.249060241633472 ],
					"id" : "obj-32",
					"maxclass" : "panel",
					"mode" : 0,
					"numinlets" : 1,
					"numoutlets" : 0,
					"patching_rect" : [ 231.0, 189.0, 98.0, 99.0 ],
					"presentation" : 1,
					"presentation_rect" : [ 20.0, 690.0, 98.0, 99.0 ],
					"proportion" : 0.5,
					"rounded" : 0,
					"shape" : 1
				}

			}
, 			{
				"box" : 				{
					"id" : "obj-26",
					"maxclass" : "message",
					"numinlets" : 2,
					"numoutlets" : 1,
					"outlettype" : [ "" ],
					"patching_rect" : [ 131.0, 150.0, 98.0, 22.0 ],
					"text" : "bgcolor $1 $1 $1"
				}

			}
, 			{
				"box" : 				{
					"angle" : 270.0,
					"bgcolor" : [ 0.57058745420355, 0.57058745420355, 0.57058745420355 ],
					"id" : "obj-27",
					"maxclass" : "panel",
					"mode" : 0,
					"numinlets" : 1,
					"numoutlets" : 0,
					"patching_rect" : [ 131.0, 189.0, 98.0, 99.0 ],
					"presentation" : 1,
					"presentation_rect" : [ 650.0, 16.0, 98.0, 99.0 ],
					"proportion" : 0.5,
					"rounded" : 0,
					"shape" : 1
				}

			}
, 			{
				"box" : 				{
					"id" : "obj-25",
					"maxclass" : "newobj",
					"numinlets" : 1,
					"numoutlets" : 9,
					"outlettype" : [ "", "", "", "", "", "", "", "", "" ],
					"patching_rect" : [ 31.0, 116.0, 819.0, 22.0 ],
					"text" : "unjoin 8"
				}

			}
, 			{
				"box" : 				{
					"id" : "obj-24",
					"maxclass" : "newobj",
					"numinlets" : 1,
					"numoutlets" : 1,
					"outlettype" : [ "" ],
					"patching_rect" : [ 31.0, 70.0, 172.0, 22.0 ],
					"text" : "vexpr $f1/127. @scalarmode 1"
				}

			}
, 			{
				"box" : 				{
					"id" : "obj-21",
					"maxclass" : "message",
					"numinlets" : 2,
					"numoutlets" : 1,
					"outlettype" : [ "" ],
					"patching_rect" : [ 31.0, 150.0, 98.0, 22.0 ],
					"text" : "bgcolor $1 $1 $1"
				}

			}
, 			{
				"box" : 				{
					"angle" : 270.0,
					"bgcolor" : [ 0.564945850963911, 0.564945850963911, 0.564945850963911 ],
					"id" : "obj-6",
					"maxclass" : "panel",
					"mode" : 0,
					"numinlets" : 1,
					"numoutlets" : 0,
					"patching_rect" : [ 31.0, 189.0, 98.0, 99.0 ],
					"presentation" : 1,
					"presentation_rect" : [ 20.0, 16.0, 98.0, 99.0 ],
					"proportion" : 0.5,
					"rounded" : 0,
					"shape" : 1
				}

			}
 ],
		"lines" : [ 			{
				"patchline" : 				{
					"destination" : [ "obj-24", 0 ],
					"source" : [ "obj-1", 0 ]
				}

			}
, 			{
				"patchline" : 				{
					"destination" : [ "obj-6", 0 ],
					"source" : [ "obj-21", 0 ]
				}

			}
, 			{
				"patchline" : 				{
					"destination" : [ "obj-25", 0 ],
					"source" : [ "obj-24", 0 ]
				}

			}
, 			{
				"patchline" : 				{
					"destination" : [ "obj-21", 0 ],
					"source" : [ "obj-25", 0 ]
				}

			}
, 			{
				"patchline" : 				{
					"destination" : [ "obj-26", 0 ],
					"source" : [ "obj-25", 1 ]
				}

			}
, 			{
				"patchline" : 				{
					"destination" : [ "obj-31", 0 ],
					"source" : [ "obj-25", 2 ]
				}

			}
, 			{
				"patchline" : 				{
					"destination" : [ "obj-33", 0 ],
					"source" : [ "obj-25", 3 ]
				}

			}
, 			{
				"patchline" : 				{
					"destination" : [ "obj-35", 0 ],
					"source" : [ "obj-25", 4 ]
				}

			}
, 			{
				"patchline" : 				{
					"destination" : [ "obj-37", 0 ],
					"source" : [ "obj-25", 5 ]
				}

			}
, 			{
				"patchline" : 				{
					"destination" : [ "obj-39", 0 ],
					"source" : [ "obj-25", 6 ]
				}

			}
, 			{
				"patchline" : 				{
					"destination" : [ "obj-42", 0 ],
					"source" : [ "obj-25", 7 ]
				}

			}
, 			{
				"patchline" : 				{
					"destination" : [ "obj-27", 0 ],
					"source" : [ "obj-26", 0 ]
				}

			}
, 			{
				"patchline" : 				{
					"destination" : [ "obj-32", 0 ],
					"source" : [ "obj-31", 0 ]
				}

			}
, 			{
				"patchline" : 				{
					"destination" : [ "obj-34", 0 ],
					"source" : [ "obj-33", 0 ]
				}

			}
, 			{
				"patchline" : 				{
					"destination" : [ "obj-36", 0 ],
					"order" : 1,
					"source" : [ "obj-35", 0 ]
				}

			}
, 			{
				"patchline" : 				{
					"destination" : [ "obj-5", 0 ],
					"order" : 0,
					"source" : [ "obj-35", 0 ]
				}

			}
, 			{
				"patchline" : 				{
					"destination" : [ "obj-38", 0 ],
					"order" : 1,
					"source" : [ "obj-37", 0 ]
				}

			}
, 			{
				"patchline" : 				{
					"destination" : [ "obj-4", 0 ],
					"order" : 0,
					"source" : [ "obj-37", 0 ]
				}

			}
, 			{
				"patchline" : 				{
					"destination" : [ "obj-3", 0 ],
					"order" : 0,
					"source" : [ "obj-39", 0 ]
				}

			}
, 			{
				"patchline" : 				{
					"destination" : [ "obj-41", 0 ],
					"order" : 1,
					"source" : [ "obj-39", 0 ]
				}

			}
, 			{
				"patchline" : 				{
					"destination" : [ "obj-2", 0 ],
					"order" : 0,
					"source" : [ "obj-42", 0 ]
				}

			}
, 			{
				"patchline" : 				{
					"destination" : [ "obj-43", 0 ],
					"order" : 1,
					"source" : [ "obj-42", 0 ]
				}

			}
 ],
		"bgcolor" : [ 0.180392156862745, 0.180392156862745, 0.180392156862745, 1.0 ]
	}

}
